<svg width="275" height="1122" viewBox="0 0 275 1122" fill="none" xmlns="http://www.w3.org/2000/svg">
<g opacity="0.1">
<path fill-rule="evenodd" clip-rule="evenodd" d="M-25 313.778C79.8171 313.778 164.788 398.272 164.788 502.5C164.788 606.728 79.8171 691.222 -25 691.222C-129.817 691.222 -214.788 606.728 -214.788 502.5C-214.788 398.272 -129.817 313.778 -25 313.778ZM-206.536 502.5C-206.536 402.803 -126.857 324.037 -25 321.983C-125.26 321.983 -206.536 402.803 -206.536 502.5C-206.536 602.197 -125.26 683.016 -25 683.016C-123.624 683.016 -206.536 602.197 -206.536 502.5Z" fill="#958C8C"/>
<path fill-rule="evenodd" clip-rule="evenodd" d="M-25 283.008C96.9068 283.008 195.732 381.278 195.732 502.5C195.732 623.722 96.9068 721.992 -25 721.992C-146.907 721.992 -245.732 623.722 -245.732 502.5C-245.732 381.278 -146.907 283.008 -25 283.008ZM187.48 502.5C187.48 385.81 92.3495 291.214 -25 291.214C-142.349 291.214 -237.48 385.81 -237.48 502.5C-237.48 619.19 -142.349 713.786 -25 713.786C92.3495 713.786 187.48 619.19 187.48 502.5Z" fill="#958C8C"/>
<path fill-rule="evenodd" clip-rule="evenodd" d="M226.676 502.5C226.676 364.284 113.997 252.238 -25 252.238C-163.996 252.238 -276.675 364.284 -276.675 502.5C-276.675 640.716 -163.996 752.762 -25 752.762C113.997 752.762 226.676 640.716 226.676 502.5ZM-25 260.444C109.439 260.444 218.424 368.816 218.424 502.5C218.424 636.184 109.439 744.556 -25 744.556C-159.439 744.556 -268.424 636.184 -268.424 502.5C-268.424 368.816 -159.439 260.444 -25 260.444Z" fill="#958C8C"/>
<path fill-rule="evenodd" clip-rule="evenodd" d="M257.619 502.5C257.619 347.291 131.086 221.469 -25 221.469C-181.086 221.469 -307.619 347.291 -307.619 502.5C-307.619 657.709 -181.086 783.531 -25 783.531C131.086 783.531 257.619 657.709 257.619 502.5ZM-25 229.674C126.529 229.674 249.368 351.822 249.368 502.5C249.368 653.178 126.529 775.326 -25 775.326C-176.529 775.326 -299.367 653.178 -299.367 502.5C-299.367 351.822 -176.529 229.674 -25 229.674Z" fill="#958C8C"/>
<path fill-rule="evenodd" clip-rule="evenodd" d="M288.563 502.5C288.563 330.297 148.176 190.699 -25 190.699C-198.176 190.699 -338.563 330.297 -338.563 502.5C-338.563 674.703 -198.176 814.301 -25 814.301C148.176 814.301 288.563 674.703 288.563 502.5ZM-25 198.904C143.619 198.904 280.311 334.829 280.311 502.5C280.311 670.171 143.619 806.096 -25 806.096C-193.619 806.096 -330.311 670.171 -330.311 502.5C-330.311 334.829 -193.619 198.904 -25 198.904Z" fill="#958C8C"/>
<path fill-rule="evenodd" clip-rule="evenodd" d="M-25 159.929C165.266 159.929 319.507 313.303 319.507 502.5C319.507 691.697 165.266 845.071 -25 845.071C-215.266 845.071 -369.507 691.697 -369.507 502.5C-369.507 313.303 -215.266 159.929 -25 159.929ZM311.255 502.5C311.255 317.835 160.708 168.134 -25 168.134C-210.708 168.134 -361.255 317.835 -361.255 502.5C-361.255 687.165 -210.708 836.866 -25 836.866C160.708 836.866 311.255 687.165 311.255 502.5Z" fill="#958C8C"/>
<path fill-rule="evenodd" clip-rule="evenodd" d="M350.45 502.5C350.45 296.309 182.355 129.159 -25 129.159C-232.355 129.159 -400.45 296.309 -400.45 502.5C-400.45 708.691 -232.355 875.841 -25 875.841C182.355 875.841 350.45 708.691 350.45 502.5ZM-25 137.364C177.798 137.364 342.199 300.841 342.199 502.5C342.199 704.159 177.798 867.636 -25 867.636C-227.798 867.636 -392.199 704.159 -392.199 502.5C-392.199 300.841 -227.798 137.364 -25 137.364Z" fill="#958C8C"/>
<path fill-rule="evenodd" clip-rule="evenodd" d="M-25 98.3891C199.445 98.3891 381.394 279.316 381.394 502.5C381.394 725.684 199.445 906.611 -25 906.611C-249.445 906.611 -431.394 725.684 -431.394 502.5C-431.394 279.316 -249.445 98.3891 -25 98.3891ZM373.142 502.5C373.142 283.847 194.888 106.594 -25 106.594C-244.888 106.594 -423.142 283.847 -423.142 502.5C-423.142 721.153 -244.888 898.406 -25 898.406C194.888 898.406 373.142 721.153 373.142 502.5Z" fill="#958C8C"/>
<path fill-rule="evenodd" clip-rule="evenodd" d="M412.338 502.5C412.338 262.322 216.535 67.6192 -25 67.6192C-266.535 67.6192 -462.338 262.322 -462.338 502.5C-462.338 742.678 -266.535 937.381 -25 937.381C216.535 937.381 412.338 742.678 412.338 502.5ZM-25 75.8245C211.978 75.8245 404.086 266.854 404.086 502.5C404.086 738.146 211.978 929.175 -25 929.175C-261.978 929.175 -454.086 738.146 -454.086 502.5C-454.086 266.854 -261.978 75.8245 -25 75.8245Z" fill="#958C8C"/>
<path fill-rule="evenodd" clip-rule="evenodd" d="M-25 36.8493C233.625 36.8493 443.281 245.328 443.281 502.5C443.281 759.672 233.625 968.151 -25 968.151C-283.625 968.151 -493.281 759.672 -493.281 502.5C-493.281 245.328 -283.625 36.8493 -25 36.8493ZM435.03 502.5C435.03 249.86 229.067 45.0546 -25 45.0546C-279.067 45.0546 -485.03 249.86 -485.03 502.5C-485.03 755.14 -279.067 959.945 -25 959.945C229.067 959.945 435.03 755.14 435.03 502.5Z" fill="#958C8C"/>
<path fill-rule="evenodd" clip-rule="evenodd" d="M474.225 502.5C474.225 228.335 250.714 6.07946 -25 6.07946C-300.714 6.07946 -524.225 228.335 -524.225 502.5C-524.225 776.665 -300.714 998.921 -25 998.921C250.714 998.921 474.225 776.665 474.225 502.5ZM-25 14.2848C246.157 14.2848 465.974 232.866 465.974 502.5C465.974 772.134 246.157 990.715 -25 990.715C-296.157 990.715 -515.973 772.134 -515.973 502.5C-515.973 232.866 -296.157 14.2848 -25 14.2848Z" fill="#958C8C"/>
<path fill-rule="evenodd" clip-rule="evenodd" d="M-25 -24.6904C267.804 -24.6904 505.169 211.341 505.169 502.5C505.169 793.659 267.804 1029.69 -25 1029.69C-317.804 1029.69 -555.169 793.659 -555.169 502.5C-555.169 211.341 -317.804 -24.6904 -25 -24.6904ZM496.917 502.5C496.917 215.872 263.247 -16.4851 -25 -16.4851C-313.247 -16.4851 -546.917 215.872 -546.917 502.5C-546.917 789.128 -313.247 1021.48 -25 1021.48C263.247 1021.48 496.917 789.128 496.917 502.5Z" fill="#958C8C"/>
<path fill-rule="evenodd" clip-rule="evenodd" d="M536.113 502.5C536.113 194.347 284.894 -55.4603 -25 -55.4603C-334.894 -55.4603 -586.113 194.347 -586.113 502.5C-586.113 810.653 -334.894 1060.46 -25 1060.46C284.894 1060.46 536.113 810.653 536.113 502.5ZM-25 -47.255C280.337 -47.255 527.861 198.879 527.861 502.5C527.861 806.121 280.337 1052.25 -25 1052.25C-330.337 1052.25 -577.861 806.121 -577.861 502.5C-577.861 198.879 -330.337 -47.255 -25 -47.255Z" fill="#958C8C"/>
<path fill-rule="evenodd" clip-rule="evenodd" d="M-25 -86.2301C301.984 -86.2301 567.056 177.353 567.056 502.5C567.056 827.647 301.984 1091.23 -25 1091.23C-351.984 1091.23 -617.056 827.647 -617.056 502.5C-617.056 177.353 -351.984 -86.2301 -25 -86.2301ZM558.805 502.5C558.805 181.885 297.426 -78.0248 -25 -78.0248C-347.426 -78.0248 -608.805 181.885 -608.805 502.5C-608.805 823.115 -347.426 1083.02 -25 1083.02C297.426 1083.02 558.805 823.115 558.805 502.5Z" fill="#958C8C"/>
<path fill-rule="evenodd" clip-rule="evenodd" d="M598 502.5C598 160.36 319.073 -117 -25 -117C-369.073 -117 -648 160.36 -648 502.5C-648 844.64 -369.073 1122 -25 1122C319.073 1122 598 844.64 598 502.5ZM-25 -108.795C314.516 -108.795 589.748 164.891 589.748 502.5C589.748 840.109 314.516 1113.79 -25 1113.79C-364.516 1113.79 -639.748 840.109 -639.748 502.5C-639.748 164.891 -364.516 -108.795 -25 -108.795Z" fill="#958C8C"/>
</g>
</svg>
