<svg width="15" height="17" viewBox="0 0 15 17" fill="none" xmlns="http://www.w3.org/2000/svg">
<path fill-rule="evenodd" clip-rule="evenodd" d="M6.46964 0.5H8.04199C9.40962 0.499988 10.4929 0.499979 11.3407 0.613961C12.2132 0.731266 12.9194 0.978423 13.4763 1.53534C14.0332 2.09227 14.2804 2.79846 14.3977 3.67096C14.5116 4.51875 14.5116 5.60201 14.5116 6.96965V10.0304C14.5116 11.398 14.5116 12.4813 14.3977 13.329C14.2804 14.2015 14.0332 14.9077 13.4763 15.4647C12.9194 16.0216 12.2132 16.2687 11.3407 16.386C10.4929 16.5 9.40962 16.5 8.04198 16.5H6.46965C5.10201 16.5 4.01875 16.5 3.17096 16.386C2.29846 16.2687 1.59227 16.0216 1.03534 15.4647C0.478423 14.9077 0.231266 14.2015 0.113961 13.329C-2.09587e-05 12.4813 -1.15596e-05 11.398 2.39342e-07 10.0304V6.96964C-1.15596e-05 5.60201 -2.09587e-05 4.51875 0.113961 3.67096C0.231266 2.79846 0.478423 2.09227 1.03534 1.53534C1.59227 0.978423 2.29846 0.731266 3.17096 0.613961C4.01875 0.499979 5.10201 0.499988 6.46964 0.5ZM3.3197 1.72029C2.57098 1.82095 2.13962 2.00973 1.82467 2.32467C1.50973 2.63962 1.32095 3.07098 1.22029 3.8197C1.11746 4.58447 1.11628 5.5926 1.11628 7.01163V9.98837C1.11628 11.4074 1.11746 12.4155 1.22029 13.1803C1.32095 13.929 1.50973 14.3604 1.82467 14.6753C2.13962 14.9903 2.57098 15.1791 3.3197 15.2797C4.08448 15.3825 5.0926 15.3837 6.51163 15.3837H8C9.41903 15.3837 10.4272 15.3825 11.1919 15.2797C11.9406 15.1791 12.372 14.9903 12.687 14.6753C13.0019 14.3604 13.1907 13.929 13.2913 13.1803C13.3942 12.4155 13.3953 11.4074 13.3953 9.98837V7.01163C13.3953 5.5926 13.3942 4.58448 13.2913 3.8197C13.1907 3.07098 13.0019 2.63962 12.687 2.32467C12.372 2.00973 11.9406 1.82095 11.1919 1.72029C10.4272 1.61746 9.41903 1.61628 8 1.61628H6.51163C5.0926 1.61628 4.08448 1.61746 3.3197 1.72029ZM3.72093 7.01163C3.72093 6.70338 3.97082 6.45349 4.27907 6.45349H10.2326C10.5408 6.45349 10.7907 6.70338 10.7907 7.01163C10.7907 7.31988 10.5408 7.56977 10.2326 7.56977H4.27907C3.97082 7.56977 3.72093 7.31988 3.72093 7.01163ZM3.72093 9.98837C3.72093 9.68012 3.97082 9.43023 4.27907 9.43023H8C8.30825 9.43023 8.55814 9.68012 8.55814 9.98837C8.55814 10.2966 8.30825 10.5465 8 10.5465H4.27907C3.97082 10.5465 3.72093 10.2966 3.72093 9.98837Z" fill="#FFF0E6"/>
</svg>
