<svg width="33" height="32" viewBox="0 0 33 32" fill="none" xmlns="http://www.w3.org/2000/svg">
<g clip-path="url(#clip0_158_1163)">
<path fill-rule="evenodd" clip-rule="evenodd" d="M12.0554 22.6518C13.371 23.5308 14.9178 24 16.5 24L16.5 32C13.3355 32 10.2421 31.0616 7.61088 29.3035C4.97968 27.5454 2.92896 25.0466 1.71792 22.123C0.506963 19.1994 0.190084 15.9822 0.807443 12.8786C1.4248 9.77488 2.94864 6.92392 5.18632 4.68632C7.42392 2.44864 10.2749 0.924799 13.3786 0.30744C16.4822 -0.309919 19.6994 0.0069607 22.623 1.21792C25.5466 2.42896 28.0454 4.47968 29.8035 7.11088C31.5616 9.74208 32.5 12.8355 32.5 16L24.5 16C24.5 14.4178 24.0308 12.871 23.1518 11.5554C22.2727 10.2398 21.0233 9.21448 19.5614 8.60896C18.0997 8.00344 16.4911 7.84504 14.9393 8.15376C13.3874 8.4624 11.962 9.22432 10.8431 10.3431C9.72432 11.462 8.9624 12.8874 8.65376 14.4393C8.34504 15.9911 8.50344 17.5997 9.10896 19.0614C9.71448 20.5233 10.7398 21.7727 12.0554 22.6518Z" fill="#02676B"/>
<path fill-rule="evenodd" clip-rule="evenodd" d="M16.5 24C17.5506 24 18.5909 24.2069 19.5615 24.609C20.5321 25.011 21.414 25.6003 22.1569 26.3431C22.8997 27.086 23.489 27.9679 23.891 28.9385C24.2931 29.9091 24.5 30.9494 24.5 32L32.5 32C32.5 29.8989 32.0862 27.8183 31.2821 25.8771C30.478 23.9358 29.2994 22.172 27.8137 20.6863C26.328 19.2006 24.5642 18.022 22.6229 17.2179C20.6817 16.4138 18.6011 16 16.5 16L16.5 24Z" fill="#02676B"/>
</g>
<defs>
<clipPath id="clip0_158_1163">
<rect width="32" height="32" fill="white" transform="translate(32.5 32) rotate(-180)"/>
</clipPath>
</defs>
</svg>
